# xmcd
#
# Track frame offsets:
#	225
#	11179
#	19170
#	27020
#	37822
#	51897
#	58497
#	68718
#	74575
#	79785
#	88942
#	100932
#	109561
#	120185
#	130321
#	138629
#	145018
#	154114
#	162513
#	171193
#	177799
#	183015
#	193710
#	202597
#	213029
#	220918
#	227598
#	241755
#	250726
#	265124
#	274476
#	284544
#	294279
#
# Disc length: 4081
#
# Revision: 1
# Processed by: cddbd v1.5.1PL0 Copyright (c) Steve Scherf et al.
# Submitted via: MusicManager v6.0.0.0
# Normalized: r0:DSETVAR1
#
DISCID=d70fee21
DTITLE=Various Artist - Honky Tonk Rockabillies Volume 1
DYEAR=1900
DGENRE=country
TTITLE0=Bob Luman - Maybelline
TTITLE1=Carl Butler - The Blues Come Around
TTITLE2=Warner Mack - Rock a Chicka
TTITLE3=Marty Robbins - Tennessee Toddy
TTITLE4=Lefty Frizzell - Whatcha Gonna Do Leroy (live)
TTITLE5=Ronnie Self - I Want You To Know
TTITLE6=Gene Davis - Matchbox
TTITLE7=Bobby Helms - I'm a Long Gone Daddy
TTITLE8=Marty Robbins - That's All Right Mama
TTITLE9=Ronnie Self - Bop a Lena
TTITLE10=Gene Davis - Lets' Have a Party
TTITLE11=Mimi Roman - Okie Boogie
TTITLE12=Red Foley - Tennessee Saturday Night
TTITLE13=George Jones - White Lightnin' (live)
TTITLE14=Ronnie Self - Short Fat Fanny
TTITLE15=Gene Davis - Rockin Blues
TTITLE16=Bob Luman - Let's Think About Livin'
TTITLE17=Marty Robbins - Ain't I the Lucky One
TTITLE18=Moon Mullican - St. Louis Blues
TTITLE19=Ernest Tubb - The Women Make a Fool Out of Me
TTITLE20=George Jones - Tall Tall Trees (live)
TTITLE21=Ronnie Self - Rocky Road Blues
TTITLE22=Gene Davis - Santa Claus is Back in Town
TTITLE23=Carl Smith - Hey Joe (live)
TTITLE24=Ronnie Self - Boppin' the Blues
TTITLE25=Porter Wagoner - Rockabye Boogie
TTITLE26=Joe Maphis - Flyin' Fingers
TTITLE27=Ronnie Self - Roll Over Beethoven
TTITLE28=Bob Luman - The Great Snowman
TTITLE29=Gene Davis - Muleskinner Blues
TTITLE30=Ronnie Self - Sweet Little Sixteen
TTITLE31=Carl Smith - Call Me Mr. Lost
TTITLE32=Marty Robbins - Sugaree
EXTD=
EXTT0=
EXTT1=
EXTT2=
EXTT3=
EXTT4=
EXTT5=
EXTT6=
EXTT7=
EXTT8=
EXTT9=
EXTT10=
EXTT11=
EXTT12=
EXTT13=
EXTT14=
EXTT15=
EXTT16=
EXTT17=
EXTT18=
EXTT19=
EXTT20=
EXTT21=
EXTT22=
EXTT23=
EXTT24=
EXTT25=
EXTT26=
EXTT27=
EXTT28=
EXTT29=
EXTT30=
EXTT31=
EXTT32=
PLAYORDER=
